<?xml version="1.0" encoding="UTF-8"?>
<svg width="9px" height="108px" viewBox="0 0 9 108" version="1.1" xmlns="http://www.w3.org/2000/svg" xmlns:xlink="http://www.w3.org/1999/xlink">
    <!-- Generator: Sketch 48.2 (47327) - http://www.bohemiancoding.com/sketch -->
    <title>g24546</title>
    <desc>Created with Sketch.</desc>
    <defs>
        <linearGradient x1="33.86442%" y1="23.1712531%" x2="82.338032%" y2="23.1712531%" id="linearGradient-1">
            <stop stop-color="#000000" offset="0%"></stop>
            <stop stop-color="#000000" stop-opacity="0" offset="100%"></stop>
        </linearGradient>
    </defs>
    <g id="Page-1" stroke="none" stroke-width="1" fill="none" fill-rule="evenodd">
        <g id="Falcon_rocket_family4" transform="translate(-1.000000, -266.000000)">
            <g id="g24546" transform="translate(0.206816, 265.779030)">
                <rect id="rect4678" fill="#F7F7F7" fill-rule="nonzero" x="0.96875" y="20.11218" width="8.46875" height="73.34375"></rect>
                <g id="g4369-6-6-9-5" transform="translate(0.910370, 20.118258)" fill="#FFFFFF" fill-rule="nonzero" opacity="0.03365383" stroke="#FFFFFF" stroke-linecap="round" stroke-linejoin="round" stroke-opacity="0" stroke-width="0.5">
                    <rect id="rect3545-0-1-5-0" x="0.330163165" y="0.209664805" width="4.06662824" height="72.8963631"></rect>
                    <rect id="rect3545-9-2-3-1-3" transform="translate(6.339895, 36.632238) scale(-1, 1) translate(-6.339895, -36.632238) " x="4.33633603" y="0.196007468" width="4.00711836" height="72.8724614"></rect>
                </g>
                <rect id="rect10914" fill="#4D4D4D" x="0.999474" y="28.52423" width="8.4852819" height="16.130875"></rect>
                <path d="M0.993184,20.15422 L9.46877,20.15422" id="path153" stroke="#000000" stroke-width="0.40000001"></path>
                <path d="M0.993184,44.63561 L9.46877,44.63561" id="path155" stroke="#000000" stroke-width="0.40000001"></path>
                <path d="M0.993184,28.49317 L9.46877,28.49317" id="path157" stroke="#000000" stroke-width="0.40000001"></path>
                <path d="M5.230976,0.9675 L5.230976,17.90709" id="path159" stroke="#000000" stroke-width="0.40000001"></path>
                <polygon id="path169" stroke="#000000" stroke-width="0.40000001" fill="#333333" fill-rule="nonzero" points="7.68673 107.1616 7.46435 107.1616 7.24198 107.1616 7.0196 107.1616 6.79723 107.1616 6.57485 107.1616 6.35248 107.1616 6.1301 107.1616 5.907725 107.1616 5.685349 107.1616 5.462973 107.1616 5.240597 107.1616 5.018222 107.1616 4.795846 107.1616 4.57347 107.1616 4.351094 107.1616 4.128718 107.1616 3.906343 107.1616 3.683967 107.1616 3.461591 107.1616 3.239215 107.1616 3.016839 107.1616 2.794464 107.1616 2.920197 106.4679 3.112024 105.7145 3.33807 104.9696 3.597717 104.2356 3.890137 103.5146 4.214307 102.8088 4.314372 102.4661 4.243692 102.3681 4.176242 102.2666 4.111982 102.1617 4.050902 102.0532 3.992962 101.9413 3.938142 101.8257 3.886412 101.7066 3.837742 101.5838 3.792112 101.4573 3.749492 101.3272 3.709862 101.1933 3.673182 101.0557 3.639442 100.9143 3.608602 100.769 3.580642 100.62 3.555532 100.467 3.533242 100.3101 3.513752 100.1493 3.497032 99.9846 3.483052 99.8158 3.471792 99.643 3.547032 99.555 3.70675 99.555 3.866469 99.555 4.026188 99.555 4.185906 99.555 4.345625 99.555 4.505344 99.555 4.665062 99.555 4.824781 99.555 4.984499 99.555 5.144218 99.555 5.303937 99.555 5.463655 99.555 5.623374 99.555 5.783093 99.555 5.942811 99.555 6.10253 99.555 6.26225 99.555 6.42197 99.555 6.58169 99.555 6.7414 99.555 6.90112 99.555 6.99102 99.628 6.98002 99.8011 6.96632 99.9702 6.94982 100.1353 6.93062 100.2965 6.90862 100.4537 6.88372 100.607 6.85602 100.7564 6.82542 100.9019 6.79192 101.0437 6.75552 101.1816 6.71612 101.3158 6.67372 101.4463 6.62832 101.5731 6.57992 101.6962 6.52842 101.8156 6.47382 101.9315 6.41612 102.0438 6.35532 102.1525 6.29132 102.2578 6.22412 102.3595 6.15372 102.4575 6.21802 102.7483 6.54489 103.4527 6.8401 104.1724 7.10261 104.9055 7.3316 105.6495 7.5264 106.4023 7.68661 107.1614"></polygon>
                <path d="M1.491747,17.90709 L8.9702,17.90709 L8.9702,10.22776 L8.22254,6.54291 L5.995148,1.4851 C5.87026231,1.17251118 5.56758835,0.967499698 5.2309755,0.967499698 C4.89436265,0.967499698 4.59168869,1.17251118 4.466803,1.4851 L2.239414,6.54291 L1.491747,10.22776 L1.491747,17.90709 Z" id="path171" stroke="#000000" stroke-width="0.40000001"></path>
                <path d="M8.9702,17.90709 L9.46877,20.15422 L9.46877,93.3815 L6.08474,96.3584 C5.57168731,96.7158637 4.89025969,96.7158637 4.377207,96.3584 L0.993184,93.3815 L0.993184,20.15422 L1.491747,17.90709" id="path211" stroke="#000000" stroke-width="0.40000001"></path>
                <path d="M9.46877,93.3815 L0.993184,93.3815" id="path517" stroke="#000000" stroke-width="0.40000001"></path>
                <path d="M5.230976,96.6265 L5.230976,99.5551" id="path845" stroke="#000000" stroke-width="0.40000001"></path>
                <path d="M0.993184,93.3815 L3.54702,99.5551" id="path847" stroke="#000000" stroke-width="0.40000001"></path>
                <path d="M9.46877,93.3815 L6.91493,99.5551" id="path849" stroke="#000000" stroke-width="0.40000001"></path>
                <path d="M5.446551,9.48225 C5.446551,4.96193 5.467641,1.26439 5.493421,1.26549 C5.663074,1.27249 5.892249,1.71756 6.89861,3.99324 L8.02695,6.54475 L8.39087,8.29475 L8.7548,10.04475 L8.7568,13.87287 L8.7588,17.701 L7.10255,17.701 L5.446298,17.701 L5.446298,9.48225 L5.446551,9.48225 Z" id="path7168" fill="#F2F2F2" fill-rule="nonzero"></path>
                <path d="M1.698313,13.95003 L1.698313,10.17417 L2.058794,8.39534 L2.419274,6.61652 L3.546012,4.05402 C4.165718,2.64464 4.703111,1.45854 4.740219,1.41823 C4.810259,1.34213 4.952254,1.25714 5.009261,1.25714 C5.032081,1.25714 5.042061,3.76305 5.042061,9.49152 L5.042061,17.72589 L3.370186,17.72589 L1.698311,17.72589 L1.698311,13.95003 L1.698313,13.95003 Z" id="path7170" fill="#F2F2F2" fill-rule="nonzero"></path>
                <path d="M1.252431,19.91129 C1.253431,19.88119 1.341541,19.46285 1.448235,18.9816 L1.642218,18.1066 L5.227036,18.0986 L8.81185,18.0906 L8.82855,18.161 C8.89025,18.42105 9.21935,19.91936 9.21935,19.94014 C9.21935,19.95424 7.42638,19.96584 5.234975,19.96584 C1.460472,19.96584 1.250696,19.96284 1.252421,19.91114 L1.252431,19.91129 Z" id="path7180" fill="#F2F2F2" fill-rule="nonzero"></path>
                <path d="M4.747229,96.4677 C4.474409,96.3665 4.496572,96.3847 2.843517,94.8827 L1.278629,93.4608 L3.238116,93.4468 C4.315834,93.4368 6.07451,93.4368 7.14629,93.4468 L9.09497,93.4608 L7.50147,94.9087 C6.41005,95.9002 5.839416,96.384 5.690401,96.4441 C5.432876,96.5484 4.992518,96.5589 4.747229,96.4671 L4.747229,96.4677 Z" id="path12008" fill="#EFEFEF" fill-rule="nonzero"></path>
                <g id="g4369-6-6-9" transform="translate(0.831836, 20.118263)" fill="url(#linearGradient-1)" fill-rule="nonzero" opacity="0.03365383" stroke="#FFFFFF" stroke-linecap="round" stroke-linejoin="round" stroke-opacity="0" stroke-width="0.5">
                    <rect id="rect3545-0-1-5" x="0.333198216" y="0.20963321" width="4.10401104" height="72.885378"></rect>
                    <rect id="rect3545-9-2-3-1" transform="translate(6.398175, 36.626718) scale(-1, 1) translate(-6.398175, -36.626718) " x="4.37619814" y="0.195977931" width="4.04395411" height="72.8614799"></rect>
                </g>
                <g id="g13172" transform="translate(2.851787, 55.347475)" fill="#005288" fill-rule="nonzero">
                    <path d="M2.87210431,4.59420694 L0.874277681,4.59420694 L0.800254454,4.64956556 L0.800254454,6.42683055 L1.35330345,6.42683055 L1.35330345,5.76036328 L1.40609529,5.71305617 L2.87217145,5.71305617 C3.2423444,5.71305617 3.41589331,5.61345818 3.41589331,5.35791201 L3.41589331,4.94983657 C3.415821,4.6938669 3.2423444,4.59420178 2.87210431,4.59420178 L2.87210431,4.59420694 Z M2.87210431,5.25126444 C2.87210431,5.37165999 2.79245174,5.39667182 2.61891316,5.39667182 L1.41214812,5.39667182 L1.35323631,5.33938684 L1.35323631,4.95867308 L1.40602299,4.91038471 L2.61891316,4.91038471 C2.79245174,4.91038471 2.87210431,4.93512282 2.87210431,5.05607614 L2.87210431,5.25127993 L2.87210431,5.25126444 Z" id="path13174"></path>
                    <polyline id="polyline13176" points="1.71514057 8.63628132 2.19103453 9.33352296 2.16467513 9.40106001 1.11222282 9.40106001 0.843570704 9.73154984 2.41017372 9.73154984 2.51874594 9.79766206 2.76196479 10.1331388 3.39487526 10.1331388 2.00758738 8.27736609"></polyline>
                    <g id="g13178" transform="translate(0.819810, 16.417446)">
                        <polyline id="polyline13180" points="0.599711878 1.47876211 0.599711878 0.985485199 0.656633925 0.936328488 1.71542674 0.936328488 1.71542674 0.622224227 0.0373306039 0.622224227 0.0373306039 1.83967211 2.5126916 1.83967211 2.5126916 1.52706392 0.659127381 1.52706392"></polyline>
                    </g>
                    <path d="M1.41125982,12.6025874 L3.42654257,12.6025874 C3.39550374,12.3463285 3.23647232,12.2752336 2.83309661,12.2752336 L1.38981669,12.2752336 C0.934651052,12.2752336 0.789460584,12.3640687 0.789460584,12.7085223 L0.789460584,13.6749145 C0.789460584,14.0197245 0.934651052,14.1085647 1.38981669,14.1085647 L2.83309661,14.1085647 C3.24238055,14.1085647 3.39911374,14.0316907 3.40979916,13.7658878 L1.41125982,13.7658878 L1.3519865,13.7101108 L1.3519865,12.6399166" id="path13184"></path>
                    <path d="M2.85050624,1.08546053 L1.38442492,1.08546053 L1.34124944,1.03794684 L1.34124944,0.724341008 L1.38421834,0.691133072 L3.360607,0.691133072 L3.3876175,0.62509421 C3.32029267,0.451906818 3.14596391,0.371118055 2.82224593,0.371118055 L1.44934308,0.371118055 C0.994471818,0.371118055 0.849064439,0.459953158 0.849064439,0.804406737 L0.849064439,1.00702163 C0.849064439,1.3518987 0.994471818,1.44059436 1.44934308,1.44059436 L2.91215009,1.44059436 L2.95811442,1.48092935 L2.95811442,1.80878413 L2.92067156,1.85991299 L1.24742023,1.85991299 L1.24742023,1.85836363 L0.809142612,1.85836363 C0.809142612,1.85836363 0.758995013,1.88351489 0.76090589,1.89529003 C0.798297097,2.13622574 0.962451724,2.20447502 1.35541575,2.20447502 L2.85056305,2.20447502 C3.30537234,2.20447502 3.45511792,2.11563992 3.45511792,1.77082999 L3.45511792,1.51841868 C3.45511792,1.17418201 3.30537234,1.08548635 2.85056305,1.08548635" id="path13186"></path>
                    <path d="M1.43914829,20.6736963 L0.616237039,20.6736963 L0.571563844,20.7586838 L1.48544832,21.424867 C1.65856857,21.3246286 1.84693452,21.2230371 2.0518218,21.1227987" id="path13188"></path>
                    <path d="M2.17649875,21.9286154 L2.97974864,22.514361 L3.81271007,22.514361 L3.84720914,22.4367795 L2.64778806,21.5588711 C2.48848809,21.6757806 2.33111966,21.7992387 2.17652458,21.9286154" id="path13190"></path>
                    <path d="M1.31668693,22.5130079 L0.572137106,22.5130079 L0.509233115,22.4144842 C1.01547597,21.9256923 3.32701689,20.0886736 6.33577986,19.8549683 C6.33577986,19.8549683 3.70385724,20.1471981 1.31668693,22.5130079" id="path13192"></path>
                </g>
            </g>
        </g>
    </g>
</svg>